# This file uses centimeters as units for non-parametric coordinates.

g default
v -0.170099 0.000000 0.110868
v 0.170099 0.000000 0.110868
v -0.170099 0.052297 0.110868
v 0.170099 0.052297 0.110868
v -0.170099 0.052297 -0.110868
v 0.170099 0.052297 -0.110868
v -0.170099 0.000000 -0.110868
v 0.170099 0.000000 -0.110868
v -0.167118 0.026148 0.108925
v -0.167118 0.026148 -0.108925
v 0.167118 0.026148 -0.108925
v 0.167118 0.026148 0.108925
vt 0.443840 0.821607
vt 0.412002 0.602984
vt 0.651186 0.837894
vt 0.444394 0.837853
vt 0.443832 0.854072
vt 0.651724 0.854098
vt 0.786270 0.854186
vt 0.995376 0.853907
vt 0.993504 0.837705
vt 0.786822 0.837933
vt 0.786277 0.821729
vt 0.308007 0.821779
vt 0.621756 0.602995
vt 0.936988 0.740753
vt 0.309260 0.838039
vt 0.621749 0.739710
vt 0.308074 0.854204
vt 0.411994 0.739699
vt 0.651748 0.821675
vt 0.727233 0.740762
vt 0.727228 0.604047
vt 0.995319 0.821553
vt 0.936983 0.604039
vn 0.000000 0.074089 0.997252
vn 0.000000 0.074089 0.997252
vn 0.000000 0.000000 1.000000
vn 0.000000 0.000000 1.000000
vn 0.000000 1.000000 0.000000
vn 0.000000 1.000000 0.000000
vn 0.000000 1.000000 0.000000
vn 0.000000 1.000000 0.000000
vn 0.000000 0.000000 -1.000000
vn 0.000000 0.000000 -1.000000
vn 0.000000 0.074089 -0.997252
vn 0.000000 0.074089 -0.997252
vn 0.000000 -1.000000 0.000000
vn 0.000000 -1.000000 0.000000
vn 0.000000 -1.000000 0.000000
vn 0.000000 -1.000000 0.000000
vn 0.993564 0.113276 0.000000
vn 0.993564 0.113276 0.000000
vn 1.000000 0.000000 0.000000
vn 1.000000 0.000000 0.000000
vn -0.993564 0.113276 0.000000
vn -0.993564 0.113276 0.000000
vn -1.000000 0.000000 0.000000
vn -1.000000 0.000000 0.000000
vn -0.993564 -0.113276 0.000000
vn -0.993564 -0.113276 0.000000
vn 0.000000 -0.074089 -0.997252
vn 0.000000 -0.074089 -0.997252
vn 0.993564 -0.113276 0.000000
vn 0.993564 -0.113276 0.000000
vn 0.000000 -0.074089 0.997252
vn 0.000000 -0.074089 0.997252
s 1
g reamPaper boxReams godot_exports
f 1/1/1 2/19/2 12/3/3 9/4/4
s off
f 3/14/5 4/20/6 6/21/7 5/23/8
s 2
f 10/9/9 11/10/10 8/11/11 7/22/12
s off
f 7/16/13 8/18/14 2/2/15 1/13/16
s 3
f 2/19/17 8/11/18 11/10/19 12/3/20
s 4
f 7/12/21 1/1/22 9/4/23 10/15/24
f 10/15/24 9/4/23 3/5/25 5/17/26
s 2
f 5/8/27 6/7/28 11/10/10 10/9/9
s 3
f 12/3/20 11/10/19 6/7/29 4/6/30
s 1
f 9/4/4 12/3/3 4/6/31 3/5/32
