# This file uses centimeters as units for non-parametric coordinates.

g default
v 0.026299 0.000000 0.055938
v -0.000000 0.000000 0.061534
v -0.026299 0.000000 0.055938
v -0.073658 0.000000 0.026299
v -0.052808 0.000000 0.044120
v 0.073658 0.000000 0.026299
v 0.052808 0.000000 0.044120
v -0.000000 0.088739 0.061534
v -0.026299 0.088739 0.055938
v 0.026299 0.088739 0.055938
v -0.073658 0.088739 0.026299
v -0.081445 0.088739 -0.000001
v -0.081445 0.000000 0.000000
v -0.052807 0.088739 0.044120
v 0.073658 0.088739 0.026299
v 0.052807 0.088739 0.044120
v 0.081445 0.000000 0.000000
v 0.081445 0.088739 -0.000001
v 0.000000 0.000000 0.000000
v -0.048707 0.088739 -0.077206
v -0.048707 0.000000 -0.077206
v 0.048707 0.000000 -0.077206
v 0.048707 0.088739 -0.077206
v -0.000000 0.088739 0.050528
v -0.022837 0.088739 0.045295
v 0.022837 0.088739 0.045295
v -0.064607 0.088739 0.020425
v -0.070869 0.088739 0.000599
v -0.046861 0.088739 0.034704
v 0.064607 0.088739 0.020425
v 0.046861 0.088739 0.034704
v 0.070869 0.088739 0.000599
v -0.043527 0.088739 -0.069383
v 0.043527 0.088739 -0.069383
v -0.000000 0.005476 0.039226
v -0.018532 0.005476 0.034980
v 0.018532 0.005476 0.034980
v -0.052429 0.005476 0.014797
v -0.057511 0.005476 -0.001291
v -0.038027 0.005476 0.026385
v 0.052429 0.005476 0.014797
v 0.038027 0.005476 0.026385
v 0.057511 0.005476 -0.001291
v -0.035322 0.005476 -0.058082
v 0.035322 0.005476 -0.058082
v 0.000000 0.005476 0.007125
v -0.054305 0.088469 0.035808
v 0.054305 0.088469 0.035808
v -0.054305 0.078897 0.035808
v 0.054305 0.078897 0.035808
v -0.036084 0.078897 0.076750
v -0.028286 0.078897 0.081568
v -0.036084 0.088469 0.076750
v -0.028286 0.088469 0.081568
v 0.036084 0.078897 0.076750
v 0.028286 0.078897 0.081568
v 0.036084 0.088469 0.076750
v 0.028286 0.088469 0.081568
v -0.000000 0.078897 0.081568
v -0.000000 0.088469 0.081568
v -0.000000 0.088469 0.057010
v -0.000000 0.078897 0.057010
vt 0.778202 0.009181
vt 0.638927 0.541194
vt 0.073122 0.193572
vt 0.078543 0.219064
vt 0.830326 0.009177
vt 0.078552 0.168082
vt 0.696901 0.009186
vt 0.673072 0.469796
vt 0.107262 0.264972
vt 0.132752 0.272524
vt 0.655801 0.490007
vt 0.089992 0.244759
vt 0.655812 0.592377
vt 0.673087 0.612584
vt 0.107287 0.122184
vt 0.090010 0.142391
vt 0.698579 0.620128
vt 0.132780 0.114641
vt 0.698570 0.541187
vt 0.207590 0.240805
vt 0.773397 0.493970
vt 0.773408 0.588389
vt 0.207607 0.146386
vt 0.775350 0.184412
vt 0.795873 0.184412
vt 0.754948 0.184412
vt 0.838898 0.184412
vt 0.857085 0.184412
vt 0.818901 0.184412
vt 0.712525 0.184412
vt 0.732166 0.184412
vt 0.694981 0.184412
vt 0.921857 0.184412
vt 0.992916 0.184412
vt 0.094625 0.193804
vt 0.098742 0.211767
vt 0.098740 0.175841
vt 0.118305 0.244621
vt 0.133899 0.249546
vt 0.107073 0.230662
vt 0.118301 0.142986
vt 0.107071 0.156945
vt 0.133896 0.138060
vt 0.188943 0.228037
vt 0.188941 0.159565
vt 0.125740 0.193803
vt 0.395646 0.557292
vt 0.095779 0.093065
vt 0.095745 0.065649
vt 0.423063 0.557295
vt 0.091119 0.100629
vt 0.071941 0.065679
vt 0.458036 0.561970
vt 0.091031 0.030680
vt 0.051325 0.013068
vt 0.502800 0.557306
vt 0.343326 0.548008
vt 0.388087 0.561961
vt 0.370421 0.601643
vt 0.423059 0.581098
vt 0.450479 0.557299
vt 0.095710 0.038232
vt 0.200023 0.151406
vt 0.633839 0.184412
vt 0.200009 0.235783
vt 0.132197 0.124891
vt 0.132173 0.262273
vt 0.099136 0.148156
vt 0.088866 0.171439
vt 0.088859 0.215710
vt 0.099120 0.238997
vt 0.112980 0.130958
vt 0.112958 0.256200
vt 0.083791 0.193574
vt 0.615618 0.009192
vt 0.992909 0.009166
vt 0.615624 0.095203
vt 0.521205 0.095209
vt 0.911633 0.095182
vt 0.911627 0.009171
vt 0.698562 0.462246
vt 0.696906 0.095197
vt 0.858462 0.095186
vt 0.830332 0.095188
vt 0.778208 0.095191
vt 0.750077 0.095193
vt 0.885048 0.095184
vt 0.723492 0.095195
vt 0.804270 0.095190
vt 0.885042 0.009173
vt 0.858457 0.009175
vt 0.723486 0.009184
vt 0.750071 0.009182
vt 0.804264 0.009179
vt 0.644354 0.566684
vt 0.644349 0.515702
vt 0.521199 0.009198
vt 0.992916 0.095177
vt 0.423064 0.548018
vt 0.450481 0.548022
vt 0.459363 0.557300
vt 0.475693 0.601656
vt 0.459365 0.548023
vt 0.386762 0.557291
vt 0.343325 0.557285
vt 0.395647 0.548015
vt 0.386763 0.548014
vt 0.502801 0.548029
vt 0.051457 0.118340
vt 0.921857 0.107227
vt 0.992916 0.107227
vt 0.633839 0.107227
vt 0.694981 0.107227
vt 0.857085 0.107227
vt 0.732166 0.107227
vt 0.754948 0.107227
vt 0.795873 0.107227
vt 0.818901 0.107227
vt 0.712525 0.107227
vt 0.838898 0.107227
vt 0.775350 0.107227
vn -0.313180 -0.000001 0.949694
vn 0.000000 0.000000 1.000000
vn 0.000000 0.000000 1.000000
vn -0.313180 -0.000001 0.949694
vn 0.313180 -0.000001 0.949694
vn 0.313180 -0.000001 0.949694
vn -0.958853 0.000004 0.283902
vn -0.958853 0.000004 0.283902
vn -0.958853 0.000004 0.283902
vn -0.958853 0.000004 0.283902
vn -0.649719 0.000001 0.760174
vn -0.530506 0.000000 0.847681
vn -0.530505 -0.000000 0.847682
vn -0.649719 0.000001 0.760174
vn 0.530506 0.000000 0.847681
vn 0.649719 0.000001 0.760174
vn 0.649719 0.000001 0.760174
vn 0.530505 0.000000 0.847682
vn 0.958853 0.000004 0.283902
vn 0.958853 0.000004 0.283902
vn 0.958853 0.000004 0.283902
vn 0.958853 0.000004 0.283902
vn 0.000000 -1.000000 0.000000
vn 0.000000 -1.000000 0.000000
vn 0.000000 -1.000000 0.000000
vn 0.000000 -1.000000 0.000000
vn 0.000000 -1.000000 0.000000
vn 0.000000 -1.000000 0.000000
vn 0.000000 -1.000000 0.000000
vn 0.000000 -1.000000 0.000000
vn 0.000000 -1.000000 0.000000
vn 0.000000 -1.000000 0.000000
vn -0.920649 -0.000003 -0.390392
vn -0.920649 -0.000003 -0.390392
vn -0.920649 -0.000003 -0.390392
vn -0.920649 -0.000003 -0.390392
vn 0.920649 -0.000003 -0.390392
vn 0.920649 -0.000003 -0.390392
vn 0.920649 -0.000003 -0.390392
vn 0.920649 -0.000003 -0.390392
vn 0.000000 -0.000005 -1.000000
vn 0.000000 -0.000005 -1.000000
vn 0.000000 -0.000005 -1.000000
vn 0.000000 -0.000005 -1.000000
vn 0.000000 -1.000000 0.000000
vn 0.000000 -1.000000 0.000000
vn 0.000000 -1.000000 0.000000
vn 0.000000 -1.000000 0.000000
vn 0.000000 -1.000000 0.000000
vn 0.000000 1.000000 -0.000000
vn 0.000000 1.000000 0.000001
vn 0.000000 1.000000 0.000001
vn 0.000000 1.000000 -0.000000
vn 0.000000 1.000000 0.000000
vn 0.000000 1.000000 0.000000
vn 0.000000 1.000000 0.000000
vn 0.000000 1.000000 0.000000
vn 0.000000 1.000000 0.000000
vn 0.000000 1.000000 0.000000
vn 0.000000 1.000000 -0.000000
vn 0.000000 1.000000 -0.000000
vn 0.000000 1.000000 -0.000000
vn 0.000000 1.000000 0.000000
vn 0.000000 1.000000 0.000000
vn 0.000000 1.000000 -0.000000
vn 0.000000 1.000000 -0.000000
vn 0.000000 1.000000 -0.000000
vn 0.000000 1.000000 -0.000000
vn 0.000000 1.000000 -0.000000
vn 0.000000 1.000000 -0.000001
vn 0.000000 1.000000 -0.000001
vn 0.221403 0.131162 -0.966322
vn 0.221403 0.131162 -0.966322
vn 0.221403 0.131162 -0.966322
vn 0.221403 0.131162 -0.966322
vn -0.221403 0.131162 -0.966322
vn -0.221403 0.131162 -0.966322
vn -0.221403 0.131162 -0.966322
vn -0.221403 0.131162 -0.966322
vn 0.941607 0.157820 -0.297436
vn 0.941607 0.157820 -0.297436
vn 0.941608 0.157820 -0.297436
vn 0.941607 0.157820 -0.297436
vn 0.620468 0.142866 -0.771109
vn 0.620468 0.142866 -0.771109
vn 0.620468 0.142866 -0.771109
vn 0.620468 0.142866 -0.771109
vn -0.620468 0.142866 -0.771109
vn -0.620468 0.142866 -0.771109
vn -0.620468 0.142866 -0.771109
vn -0.620468 0.142866 -0.771109
vn -0.941608 0.157820 -0.297436
vn -0.941608 0.157820 -0.297436
vn -0.941608 0.157820 -0.297436
vn -0.941607 0.157820 -0.297436
vn 0.399813 0.133024 -0.906893
vn 0.399813 0.133024 -0.906893
vn 0.399813 0.133024 -0.906893
vn 0.399813 0.133024 -0.906893
vn -0.399813 0.133024 -0.906893
vn -0.399813 0.133024 -0.906893
vn -0.399813 0.133024 -0.906893
vn -0.399813 0.133024 -0.906893
vn 0.922283 0.139792 0.360351
vn 0.922283 0.139792 0.360351
vn 0.922283 0.139792 0.360351
vn 0.922283 0.139792 0.360351
vn -0.922283 0.139792 0.360351
vn -0.922283 0.139792 0.360351
vn -0.922283 0.139792 0.360351
vn -0.922283 0.139792 0.360351
vn 0.000000 0.134499 0.990914
vn 0.000000 0.134499 0.990914
vn 0.000000 0.134499 0.990914
vn 0.000000 0.134499 0.990914
vn 0.000000 1.000000 -0.000000
vn 0.000000 1.000000 0.000000
vn 0.000000 1.000000 -0.000000
vn 0.000000 1.000000 -0.000000
vn 0.000000 1.000000 0.000000
vn 0.000000 1.000000 0.000000
vn 0.000000 1.000000 0.000000
vn 0.000000 1.000000 0.000000
vn 0.000000 1.000000 0.000000
vn 0.000000 1.000000 0.000000
vn 0.000000 1.000000 0.000000
vn 0.000000 1.000000 0.000000
vn 0.000000 0.000000 1.000000
vn 0.000000 0.000000 1.000000
vn 0.000000 0.000000 1.000000
vn 0.000000 0.000000 1.000000
vn 0.000000 -1.000000 -0.000000
vn 0.000000 -1.000000 -0.000000
vn 0.000000 -1.000000 0.000000
vn 0.913604 0.000000 0.406605
vn 0.913604 0.000000 0.406605
vn 0.913604 0.000000 0.406605
vn 0.913604 0.000000 0.406605
vn -0.913604 0.000000 0.406605
vn -0.913604 0.000000 0.406605
vn -0.913604 0.000000 0.406605
vn -0.913604 0.000000 0.406605
vn 0.000000 1.000000 -0.000000
vn 0.000000 1.000000 0.000000
vn 0.000000 1.000000 0.000000
vn -0.525641 0.000000 0.850707
vn -0.525641 0.000000 0.850707
vn -0.525641 0.000000 0.850707
vn -0.525641 0.000000 0.850707
vn 0.525641 0.000000 0.850707
vn 0.525641 0.000000 0.850707
vn 0.525641 0.000000 0.850707
vn 0.525641 0.000000 0.850707
vn 0.000000 0.000000 1.000000
vn 0.000000 0.000000 1.000000
vn 0.000000 1.000000 -0.000000
vn 0.000000 1.000000 -0.000000
vn 0.000000 -1.000000 -0.000000
vn 0.000000 -1.000000 -0.000000
vn 0.000000 1.000000 0.000000
vn 0.000000 1.000000 0.000000
vn 0.000000 1.000000 0.000000
vn 0.000000 -1.000000 0.000000
vn 0.000000 -1.000000 0.000000
vn 0.000000 -1.000000 -0.000000
s 1
g filterChamber coffeeMaker godot_exports
f 3/1/1 2/94/2 8/89/3 9/85/4
f 2/94/2 1/5/5 10/84/6 8/89/3
s off
f 13/7/7 4/92/8 11/88/9 12/82/10
s 1
f 4/92/11 5/93/12 14/86/13 11/88/14
f 7/91/15 6/90/16 15/87/17 16/83/18
s off
f 6/90/19 17/80/20 18/79/21 15/87/22
s 1
f 14/86/13 5/93/12 3/1/1 9/85/4
f 10/84/6 1/5/5 7/91/15 16/83/18
s 2
f 19/19/23 1/95/24 2/2/25
f 19/19/23 2/2/25 3/96/26
f 5/11/27 19/19/23 3/96/26
f 6/14/28 7/13/29 19/19/23
f 4/8/30 13/81/31 19/19/23
f 4/8/30 19/19/23 5/11/27
f 19/19/23 7/13/29 1/95/24
f 6/14/28 19/19/23 17/17/32
s off
f 13/7/33 12/82/34 20/77/35 21/75/36
f 18/79/37 17/80/38 22/76/39 23/98/40
f 21/75/41 20/77/42 23/78/43 22/97/44
s 3
f 19/19/45 21/21/46 22/22/47
f 19/19/45 22/22/47 17/17/48
f 19/19/45 13/81/49 21/21/46
s 4
f 9/4/50 8/3/51 24/74/52 25/70/53
f 8/3/51 10/6/54 26/69/55 24/74/52
f 12/10/56 11/9/57 27/73/58 28/67/59
f 11/9/57 14/12/60 29/71/61 27/73/58
f 16/16/62 15/15/63 30/72/64 31/68/65
f 15/15/63 18/18/66 32/66/67 30/72/64
f 14/12/60 9/4/50 25/70/53 29/71/61
f 10/6/54 16/16/62 31/68/65 26/69/55
f 20/20/68 12/10/56 28/67/59 33/65/69
f 18/18/66 23/23/70 34/63/71 32/66/67
f 23/23/70 20/20/68 33/65/69 34/63/71
s off
f 25/25/72 24/24/73 35/121/74 36/117/75
f 24/24/76 26/26/77 37/116/78 35/121/79
f 28/28/80 27/27/81 38/120/82 39/114/83
f 27/27/84 29/29/85 40/118/86 38/120/87
f 31/31/88 30/30/89 41/119/90 42/115/91
f 30/30/92 32/32/93 43/113/94 41/119/95
f 29/29/96 25/25/97 36/117/98 40/118/99
f 26/26/100 31/31/101 42/115/102 37/116/103
f 33/33/104 28/28/105 39/114/106 44/110/107
f 32/32/108 34/64/109 45/112/110 43/113/111
f 34/34/112 33/33/113 44/110/114 45/111/115
s 7
f 38/38/116 46/46/117 39/39/118
f 36/36/119 46/46/117 40/40/120
f 46/46/117 41/41/121 43/43/122
f 45/45/123 46/46/117 43/43/122
f 39/39/118 46/46/117 44/44/124
f 40/40/120 46/46/117 38/38/116
f 46/46/117 35/35/125 37/37/126
f 36/36/119 35/35/125 46/46/117
f 46/46/117 42/42/127 41/41/121
f 46/46/117 37/37/126 42/42/127
f 44/44/124 46/46/117 45/45/123
s 10
f 54/47/128 52/106/129 59/99/130 60/50/131
s 11
f 51/51/132 62/52/133 52/48/134
s off
f 57/101/135 55/103/136 50/108/137 48/56/138
f 49/57/139 51/107/140 53/104/141 47/105/142
s 12
f 61/60/143 60/50/144 58/61/145
s off
f 51/107/146 52/106/147 54/47/148 53/104/149
f 56/100/150 55/103/151 57/101/152 58/61/153
s 10
f 60/50/131 59/99/130 56/100/154 58/61/155
s 12
f 53/58/156 61/60/143 47/59/157
s 11
f 55/54/158 62/52/133 50/55/159
s 12
f 61/60/143 54/47/160 60/50/144
f 53/58/156 54/47/160 61/60/143
f 61/60/143 57/53/161 48/102/162
f 61/60/143 58/61/145 57/53/161
s 11
f 59/49/163 62/52/133 56/62/164
f 56/62/164 62/52/133 55/54/158
f 49/109/165 62/52/133 51/51/132
f 52/48/134 62/52/133 59/49/163
