# This file uses centimeters as units for non-parametric coordinates.

g default
v -0.007087 -0.024390 0.006067
v 0.007286 -0.024334 0.006043
v 0.007136 0.019249 0.018165
v -0.007236 0.019194 0.018189
v 0.007186 0.000038 0.002824
v -0.007186 -0.000017 0.002847
v -0.007172 -0.015642 -0.025387
v 0.007200 -0.015587 -0.025411
v -0.007321 0.027941 -0.013265
v 0.007051 0.027998 -0.013288
v -0.007247 0.006149 -0.019326
v 0.007126 0.006205 -0.019350
vt 0.427244 0.838349
vt 0.427243 0.824418
vt 0.417912 0.918052
vt 0.417908 0.860274
vt 0.427247 0.896128
vt 0.427247 0.882197
vt 0.395600 0.838351
vt 0.395599 0.824420
vt 0.395603 0.896130
vt 0.395602 0.882199
vt 0.395604 0.918054
vt 0.395601 0.860275
vt 0.474906 0.896124
vt 0.427250 0.939975
vt 0.395606 0.939977
vt 0.451075 0.882195
vt 0.451077 0.896126
vt 0.474905 0.882194
vn 0.001116 0.130964 0.991387
vn 0.001116 0.130964 0.991387
vn 0.002607 -0.267936 0.963433
vn 0.002607 -0.267950 0.963429
vn 0.003682 -0.624012 0.781407
vn 0.003682 -0.624012 0.781407
vn 0.003302 -0.963429 -0.267944
vn 0.003302 -0.963429 -0.267944
vn 0.003302 -0.963429 -0.267944
vn 0.003302 -0.963429 -0.267944
vn -0.003332 0.963424 0.267961
vn -0.003332 0.963424 0.267961
vn -0.003332 0.963424 0.267961
vn -0.003332 0.963424 0.267961
vn 0.999991 0.003872 -0.001626
vn 0.999991 0.003872 -0.001626
vn 0.999991 0.003872 -0.001626
vn 0.999991 0.003872 -0.001626
vn -0.999991 -0.003889 0.001657
vn -0.999991 -0.003889 0.001657
vn -0.999991 -0.003889 0.001657
vn -0.999991 -0.003889 0.001657
vn -0.999991 -0.003881 0.001641
vn -0.999991 -0.003881 0.001641
vn -0.999991 -0.003881 0.001641
vn -0.999991 -0.003881 0.001641
vn 0.999991 0.003882 -0.001641
vn 0.999991 0.003882 -0.001641
vn 0.999991 0.003882 -0.001641
vn 0.999991 0.003882 -0.001641
s 1
g powerSwitch coffeeMaker godot_exports
f 1/18/1 2/13/2 5/17/3 6/16/4
f 6/16/4 5/17/3 3/5/5 4/6/6
s off
f 2/2/7 1/1/8 7/7/9 8/8/10
f 4/6/11 3/5/12 10/9/13 9/10/14
f 3/5/15 5/3/16 12/11/17 10/9/18
f 6/4/19 4/6/20 9/10/21 11/12/22
f 6/4/23 11/12/24 7/7/25 1/1/26
f 5/3/27 2/14/28 8/15/29 12/11/30
