# This file uses centimeters as units for non-parametric coordinates.

g default
v -0.503075 -0.758125 0.104460
v 0.503075 -0.758125 0.104460
v -0.503075 0.758125 0.104460
v 0.503075 0.758125 0.104460
v -0.503075 0.758125 0.000000
v 0.503075 0.758125 0.000000
v -0.503075 -0.758125 0.000000
v 0.503075 -0.758125 0.000000
v -0.503075 0.000000 0.104460
v 0.503075 0.000000 0.104460
v 0.000000 -0.758125 0.104460
v 0.000000 0.758125 0.104460
v -0.426472 0.035212 0.104460
v -0.426472 -0.035212 0.104460
v -0.035212 -0.035212 0.104460
v -0.035212 0.035212 0.104460
v 0.426472 0.035212 0.104460
v 0.426472 -0.035212 0.104460
v 0.035212 0.035212 0.104460
v 0.035212 -0.035212 0.104460
v 0.035212 0.681526 0.104460
v -0.035212 0.681526 0.104460
v -0.035212 -0.681526 0.104460
v 0.035212 -0.681526 0.104460
v -0.426472 -0.681526 0.104460
v -0.426472 0.681526 0.104460
v 0.426472 -0.681526 0.104460
v 0.426472 0.681526 0.104460
v -0.411373 -0.666420 0.064960
v -0.050312 -0.666420 0.064960
v -0.050312 -0.050312 0.064960
v -0.411373 -0.050312 0.064960
v -0.050312 0.050312 0.064960
v -0.411373 0.050312 0.064960
v -0.050312 0.666420 0.064960
v -0.411373 0.666420 0.064960
v 0.050312 -0.666428 0.064960
v 0.050312 -0.050312 0.064960
v 0.411373 -0.666428 0.064960
v 0.411373 -0.050312 0.064960
v 0.050312 0.050312 0.064960
v 0.050312 0.666420 0.064960
v 0.411373 0.050312 0.064960
v 0.411373 0.666420 0.064960
vt 0.482139 0.301509
vt 0.085297 0.475218
vt 0.513188 0.474726
vt 0.481702 0.475061
vt 0.052859 0.490125
vt 0.113740 0.273253
vt 0.008662 0.169090
vt 0.881159 0.706991
vt 0.988733 0.811153
vt 0.944518 0.490121
vt 0.512758 0.678735
vt 0.912081 0.505029
vt 0.481711 0.505518
vt 0.513197 0.505183
vt 0.194033 0.506122
vt 0.194021 0.475447
vt 0.800866 0.474122
vt 0.800878 0.504797
vt 0.834767 0.489431
vt 0.160132 0.490813
vt 0.223439 0.045017
vt 0.787580 0.458801
vt 0.526345 0.459083
vt 0.103205 0.468826
vt 0.052822 0.811154
vt 0.837546 0.271348
vt 0.944537 0.169091
vt 0.157353 0.708896
vt 0.225951 0.553939
vt 0.468208 0.459869
vt 0.207049 0.459728
vt 0.103170 0.772329
vt 0.542003 0.436847
vt 0.787850 0.520516
vt 0.894191 0.207919
vt 0.530318 0.672531
vt 0.541727 0.951827
vt 0.468554 0.521161
vt 0.894174 0.511422
vt 0.207601 0.671431
vt 0.804979 0.303300
vt 0.085262 0.778721
vt 0.912099 0.201526
vt 0.189920 0.676944
vt 0.771241 0.951853
vt 0.207319 0.521443
vt 0.771285 0.560211
vt 0.541770 0.560185
vt 0.526691 0.520375
vt 0.771518 0.436643
vt 0.771171 0.045001
vt 0.541656 0.045205
vt 0.464579 0.307714
vt 0.225952 0.945581
vt 0.455467 0.945581
vt 0.455466 0.553938
vt 0.223466 0.436660
vt 0.787298 0.308814
vt 0.452982 0.436643
vt 0.452954 0.045001
vt 0.912065 0.778712
vt 0.894159 0.772317
vt 0.804893 0.676014
vt 0.786753 0.670424
vt 0.103200 0.511435
vt 0.208146 0.309820
vt 0.190006 0.304230
vt 0.085294 0.505039
vt 0.511338 0.301646
vt 0.529434 0.307808
vt 0.085329 0.201535
vt 0.103235 0.207932
vt 0.944499 0.811150
vt 0.837411 0.707933
vt 0.157487 0.272311
vt 0.052896 0.169095
vt 0.988771 0.169094
vt 0.881376 0.272250
vt 0.113524 0.707994
vt 0.008588 0.811149
vt 0.483559 0.678597
vt 0.465463 0.672435
vt 0.912083 0.475208
vt 0.894176 0.468813
vn 0.000000 0.000000 1.000000
vn 0.000000 0.000000 1.000000
vn 0.000000 0.000000 1.000000
vn 0.000000 0.000000 1.000000
vn -1.000000 0.000000 0.000000
vn -1.000000 0.000000 0.000000
vn -1.000000 0.000000 0.000000
vn 1.000000 0.000000 0.000000
vn 1.000000 0.000000 0.000000
vn 1.000000 0.000000 0.000000
vn -0.000000 0.000000 1.000000
vn -0.000000 0.000000 1.000000
vn 0.000000 0.000000 1.000000
vn 0.000000 0.000000 1.000000
vn 0.000000 0.000000 1.000000
vn 0.000000 0.000000 1.000000
vn 0.000000 0.000000 1.000000
vn 0.000000 0.000000 1.000000
vn 0.000000 -1.000000 0.000000
vn 0.000000 -1.000000 0.000000
vn 0.000000 -1.000000 0.000000
vn 0.000000 1.000000 0.000000
vn 0.000000 1.000000 0.000000
vn 0.000000 1.000000 0.000000
vn 0.000000 0.000000 1.000000
vn 0.000000 0.000000 1.000000
vn 0.000000 0.000000 1.000000
vn 0.000000 0.000000 1.000000
vn 0.000000 1.000000 0.000000
vn 0.000000 -1.000000 0.000000
vn 1.000000 0.000000 0.000000
vn -1.000000 0.000000 0.000000
vn -1.000000 0.000000 0.000000
vn 1.000000 0.000000 0.000000
vn 0.000000 0.000000 1.000000
vn 0.000000 0.000000 1.000000
vn 0.000000 0.000000 1.000000
vn 0.000000 0.000000 1.000000
vn 0.000000 0.000000 1.000000
vn 0.000000 0.000000 1.000000
vn 0.000000 0.000000 1.000000
vn 0.000000 0.000000 1.000000
vn 0.000000 0.000000 1.000000
vn 0.000000 0.000000 1.000000
vn 0.000000 0.000000 1.000000
vn 0.000000 0.000000 1.000000
vn 0.000000 1.000000 0.000000
vn 0.000000 -1.000000 0.000000
vn 0.000000 0.000000 1.000000
vn -0.000000 0.000000 1.000000
vn 0.000000 0.000000 1.000000
vn 0.000000 0.000000 1.000000
vn 0.000000 0.000000 1.000000
vn 0.000000 0.000000 1.000000
vn 0.000000 0.000000 1.000000
vn 0.000000 0.000000 1.000000
vn -0.000000 0.000000 1.000000
vn -0.000000 0.000000 1.000000
vn -0.000000 0.000000 1.000000
vn -0.000000 0.000000 1.000000
vn 0.000000 0.934025 0.357208
vn 0.000000 0.934025 0.357208
vn 0.000000 0.934025 0.357208
vn 0.000000 0.934025 0.357208
vn -0.934074 0.000000 0.357079
vn -0.934074 0.000000 0.357079
vn -0.934074 0.000000 0.357079
vn -0.934074 0.000000 0.357079
vn 0.000000 -0.934076 0.357074
vn 0.000000 -0.934076 0.357074
vn 0.000000 -0.934076 0.357074
vn 0.000000 -0.934076 0.357074
vn 0.934086 0.000000 0.357049
vn 0.934086 0.000000 0.357049
vn 0.934086 0.000000 0.357049
vn 0.934086 0.000000 0.357049
vn 0.000000 0.934074 0.357079
vn 0.000000 0.934074 0.357079
vn 0.000000 0.934074 0.357079
vn 0.000000 0.934074 0.357079
vn -0.934074 0.000000 0.357079
vn -0.934074 0.000000 0.357079
vn -0.934074 0.000000 0.357079
vn -0.934074 0.000000 0.357079
vn 0.000000 -0.934025 0.357207
vn 0.000000 -0.934025 0.357207
vn 0.000000 -0.934025 0.357207
vn 0.000000 -0.934025 0.357207
vn 0.934086 0.000000 0.357049
vn 0.934086 0.000000 0.357049
vn 0.934086 0.000000 0.357049
vn 0.934086 0.000000 0.357049
vn 0.934074 0.000000 0.357079
vn 0.934074 0.000000 0.357079
vn 0.934074 0.000000 0.357079
vn 0.934074 0.000000 0.357079
vn 0.000000 0.934086 0.357049
vn 0.000000 0.934086 0.357049
vn 0.000000 0.934085 0.357049
vn 0.000000 0.934085 0.357049
vn -0.934086 0.000000 0.357049
vn -0.934086 0.000000 0.357049
vn -0.934086 0.000000 0.357049
vn -0.934086 0.000000 0.357049
vn 0.000000 -0.934076 0.357074
vn 0.000000 -0.934076 0.357074
vn 0.000000 -0.934076 0.357074
vn 0.000000 -0.934076 0.357074
vn 0.934074 0.000000 0.357079
vn 0.934074 0.000000 0.357079
vn 0.934074 0.000000 0.357079
vn 0.934074 0.000000 0.357079
vn 0.000000 0.934074 0.357079
vn 0.000000 0.934074 0.357079
vn 0.000000 0.934074 0.357079
vn 0.000000 0.934074 0.357079
vn -0.934086 0.000000 0.357049
vn -0.934086 0.000000 0.357049
vn -0.934086 0.000000 0.357049
vn -0.934086 0.000000 0.357049
vn 0.000000 -0.934025 0.357208
vn 0.000000 -0.934025 0.357208
vn 0.000000 -0.934025 0.357208
vn 0.000000 -0.934025 0.357208
s 1
g window godot_exports
f 13/1/1 14/69/2 15/3/3 16/4/4
s 2
f 9/5/5 5/80/6 7/7/7
s 3
f 8/77/8 6/9/9 10/10/10
s 1
f 18/11/11 17/81/12 19/13/13 20/14/14
f 16/4/4 19/13/13 21/15/15 22/16/16
f 20/14/14 15/3/3 23/17/17 24/18/18
s 5
f 11/19/19 7/78/20 8/8/21
s 6
f 12/20/22 6/79/23 5/6/24
s off
f 29/21/25 30/60/26 31/59/27 32/57/28
s 6
f 3/75/29 12/20/22 5/6/24
s 5
f 7/78/20 11/19/19 1/26/30
s 3
f 2/27/31 8/77/8 10/10/10
s 2
f 7/7/7 1/76/32 9/5/5
f 5/80/6 9/5/5 3/25/33
s 3
f 10/10/10 6/9/9 4/73/34
s off
f 34/29/35 33/56/36 35/55/37 36/54/38
f 38/33/39 37/52/40 39/51/41 40/50/42
f 42/37/43 41/48/44 43/47/45 44/45/46
s 6
f 6/79/23 12/20/22 4/28/47
s 5
f 11/19/19 8/8/21 2/74/48
s 1
f 16/4/4 15/3/3 20/14/14 19/13/13
f 9/5/49 14/2/2 13/68/1
f 10/10/50 17/12/12 18/83/11
f 12/20/51 22/16/16 21/15/15
f 11/19/52 24/18/18 23/17/17
f 1/26/53 11/19/52 23/17/17 25/41/54
f 9/5/49 1/76/53 25/71/54 14/2/2
f 12/20/51 3/75/55 26/67/56 22/16/16
f 3/25/55 9/5/49 13/68/1 26/42/56
f 11/19/52 2/74/57 27/63/58 24/18/18
f 2/27/57 10/10/50 18/83/11 27/43/58
f 10/10/50 4/73/59 28/61/60 17/12/12
f 4/28/59 12/20/51 21/15/15 28/44/60
s off
f 25/41/61 23/17/62 30/22/63 29/58/64
f 23/17/65 15/3/66 31/23/67 30/22/68
f 15/3/69 14/69/70 32/70/71 31/23/72
f 14/2/73 25/71/74 29/72/75 32/24/76
f 13/1/77 16/4/78 33/30/79 34/53/80
f 16/4/81 22/16/82 35/31/83 33/30/84
f 22/16/85 26/67/86 36/66/87 35/31/88
f 26/42/89 13/68/90 34/65/91 36/32/92
f 20/14/93 24/18/94 37/34/95 38/49/96
f 24/18/97 27/63/98 39/64/99 37/34/100
f 27/43/101 18/83/102 40/84/103 39/35/104
f 18/11/105 20/14/106 38/49/107 40/36/108
f 21/15/109 19/13/110 41/38/111 42/46/112
f 19/13/113 17/81/114 43/82/115 41/38/116
f 17/12/117 28/61/118 44/62/119 43/39/120
f 28/44/121 21/15/122 42/46/123 44/40/124
