# This file uses centimeters as units for non-parametric coordinates.

g default
v -1.864822 0.576286 0.439564
v 0.000000 0.576286 0.000000
v 0.000000 0.631996 0.000000
v -1.864822 0.631996 0.000000
v -1.864822 0.576286 0.000000
v -0.466785 0.576286 1.803207
v 0.000000 0.576286 1.803207
v 0.000000 0.631996 1.803207
v -0.466785 0.576286 0.464073
v -0.491295 0.576286 0.439564
v -0.466785 0.607487 0.464073
v -0.442276 0.631996 0.439564
v -0.466785 0.631996 0.415054
v -0.491295 0.607487 0.439564
v -1.864822 0.631996 0.415054
v -1.864822 0.607487 0.439564
v -0.466785 0.607487 1.803207
v -0.442276 0.631996 1.803207
vt 0.030689 0.515798
vt 0.030678 0.494966
vt 0.139801 0.769849
vt 0.139800 0.762862
vt 0.139814 0.870561
vt 0.139802 0.777611
vt 0.452885 0.777570
vt 0.980815 0.772340
vt 0.007518 0.466634
vt 0.680924 0.772306
vt 0.680925 0.765319
vt 0.007545 0.515811
vt 0.980816 0.765353
vt 0.557404 0.664368
vt 0.577009 0.660774
vt 0.980828 0.660819
vt 0.576984 0.879103
vt 0.139787 0.664423
vt 0.447395 0.769808
vt 0.030662 0.466621
vt 0.675434 0.780069
vt 0.007532 0.494979
vt 0.980814 0.780103
vt 0.447394 0.762821
vt 0.006005 0.050288
vt 0.557431 0.870506
vt 0.006511 0.955302
vt 0.980803 0.879148
vn 0.000000 0.000000 1.000000
vn 0.000000 0.000000 1.000000
vn 0.000000 0.000000 1.000000
vn 0.000000 0.000000 1.000000
vn 0.000000 1.000000 0.000000
vn 0.000000 1.000000 0.000000
vn 0.000000 1.000000 0.000000
vn 0.000000 1.000000 0.000000
vn 0.000000 1.000000 0.000000
vn -1.000000 0.000000 0.000000
vn -1.000000 0.000000 0.000000
vn -1.000000 0.000000 0.000000
vn -1.000000 0.000000 0.000000
vn 0.000000 -1.000000 0.000000
vn 0.000000 -1.000000 0.000000
vn 0.000000 -1.000000 0.000000
vn 0.000000 -1.000000 0.000000
vn 0.000000 1.000000 0.000000
vn 0.000000 1.000000 0.000000
vn 0.000000 1.000000 0.000000
vn 0.000000 1.000000 0.000000
vn 0.000000 -1.000000 0.000000
vn 0.000000 -1.000000 0.000000
vn 0.000000 -1.000000 0.000000
vn 0.000000 -1.000000 0.000000
vn -0.707107 0.000000 0.707107
vn -0.707107 0.000000 0.707107
vn -0.707107 0.000000 0.707107
vn -0.707107 0.000000 0.707107
vn -0.707107 0.707107 0.000000
vn -0.707107 0.707107 0.000000
vn -0.707107 0.707107 0.000000
vn -0.707107 0.707107 0.000000
vn 0.000000 0.707107 0.707106
vn 0.000000 0.707107 0.707106
vn 0.000000 0.707107 0.707106
vn 0.000000 0.707107 0.707106
vn 0.000000 -1.000000 0.000000
vn 0.000000 -1.000000 0.000000
vn 0.000000 -1.000000 0.000000
vn -0.408248 0.816497 0.408248
vn -0.408248 0.816497 0.408248
vn -0.408248 0.816497 0.408248
vn -0.408248 0.816497 0.408248
s off
g cubicle_desk_short_L cubicle_desks godot_exports
f 10/24/1 14/19/2 16/3/3 1/4/4
s 1
f 4/5/5 15/6/6 13/7/7 3/26/8
f 3/25/8 13/20/7 12/9/9
s off
f 17/8/10 11/10/11 9/11/12 6/13/13
f 6/13/14 9/11/15 2/15/16 7/16/17
f 3/17/18 12/21/19 18/23/20 8/28/21
f 2/14/22 10/24/23 1/4/24 5/18/25
f 10/1/26 9/12/27 11/22/28 14/2/29
f 12/21/30 11/10/31 17/8/32 18/23/33
f 14/19/34 13/7/35 15/6/36 16/3/37
f 9/12/38 10/1/39 2/27/40
f 11/22/41 12/9/42 13/20/43 14/2/44
