# This file uses centimeters as units for non-parametric coordinates.

g default
v -0.145806 -0.000000 0.064993
v -0.112330 -0.000000 0.098469
v -0.136002 -0.000000 0.088664
v -0.160029 0.354855 0.071333
v -0.149268 0.354855 0.097313
v -0.123288 0.354855 0.108074
v 0.145806 -0.000000 0.064993
v 0.136002 -0.000000 0.088664
v 0.112330 -0.000000 0.098469
v 0.160029 0.354855 0.071333
v 0.123288 0.354855 0.108074
v 0.149268 0.354855 0.097313
v -0.149268 0.354855 -0.097313
v -0.160029 0.354855 -0.071333
v -0.123288 0.354855 -0.108074
v -0.145806 -0.000000 -0.064993
v -0.136002 -0.000000 -0.088664
v -0.112330 -0.000000 -0.098469
v 0.149268 0.354855 -0.097313
v 0.123288 0.354855 -0.108074
v 0.160029 0.354855 -0.071333
v 0.145806 -0.000000 -0.064993
v 0.112330 -0.000000 -0.098469
v 0.136002 -0.000000 -0.088664
v -0.160029 0.323221 0.071333
v -0.160029 0.323221 -0.071333
v -0.149268 0.323221 -0.097313
v -0.123288 0.323221 -0.108074
v 0.123288 0.323221 -0.108074
v 0.149268 0.323221 -0.097313
v 0.160029 0.323221 -0.071333
v 0.160029 0.323221 0.071333
v 0.149268 0.323221 0.097313
v 0.123288 0.323221 0.108074
v -0.123288 0.323221 0.108074
v -0.149268 0.323221 0.097313
v -0.172487 0.349148 -0.073811
v -0.172487 0.328930 -0.073811
v -0.172487 0.328930 0.073811
v -0.172487 0.349148 0.073811
v -0.157729 0.349148 -0.105774
v -0.157729 0.328930 -0.105774
v -0.125766 0.349148 -0.120533
v -0.125766 0.328930 -0.120533
v 0.125766 0.328930 -0.120533
v 0.125766 0.349148 -0.120533
v 0.157729 0.349148 -0.105774
v 0.157729 0.328930 -0.105774
v 0.172487 0.349148 -0.073811
v 0.172487 0.328930 -0.073811
v 0.172487 0.349148 0.073811
v 0.172487 0.328930 0.073811
v 0.157729 0.328930 0.105774
v 0.157729 0.349148 0.105774
v 0.125766 0.328930 0.120533
v 0.125766 0.349148 0.120533
v -0.125766 0.349148 0.120533
v -0.125766 0.328930 0.120533
v -0.157729 0.328930 0.105774
v -0.157729 0.349148 0.105774
v 0.121737 0.352402 -0.100274
v 0.143298 0.352402 -0.091343
v -0.121737 0.352402 -0.100274
v -0.143298 0.352402 -0.091343
v -0.152229 0.352402 -0.069781
v -0.152229 0.352402 0.069781
v -0.143298 0.352402 0.091343
v -0.121737 0.352402 0.100274
v 0.121737 0.352402 0.100274
v 0.143298 0.352402 0.091343
v 0.152229 0.352402 0.069781
v 0.152229 0.352402 -0.069781
v 0.121737 0.329231 -0.100274
v 0.143298 0.329231 -0.091343
v -0.121737 0.329231 -0.100274
v -0.143298 0.329231 -0.091343
v -0.152229 0.329231 -0.069781
v -0.152229 0.329231 0.069781
v -0.143298 0.329231 0.091343
v -0.121737 0.329231 0.100274
v 0.121737 0.329231 0.100274
v 0.143298 0.329231 0.091343
v 0.152229 0.329231 0.069781
v 0.152229 0.329231 -0.069781
v 0.122253 0.323471 -0.102875
v 0.145288 0.323471 -0.093333
v -0.122253 0.323471 -0.102875
v -0.145288 0.323471 -0.093333
v -0.154830 0.323471 -0.070298
v -0.154830 0.323471 0.070298
v -0.145288 0.323471 0.093333
v -0.122253 0.323471 0.102875
v 0.122253 0.323471 0.102875
v 0.145288 0.323471 0.093333
v 0.154830 0.323471 0.070298
v 0.154830 0.323471 -0.070298
v 0.119827 0.016615 -0.090674
v 0.135951 0.016615 -0.083996
v -0.119827 0.016615 -0.090674
v -0.135951 0.016615 -0.083996
v -0.142630 0.016615 -0.067872
v -0.142630 0.016615 0.067872
v -0.135951 0.016615 0.083996
v -0.119827 0.016615 0.090674
v 0.119827 0.016615 0.090674
v 0.135951 0.016615 0.083996
v 0.142630 0.016615 0.067872
v 0.142630 0.016615 -0.067872
vt 0.710265 0.727711
vt 0.455009 0.727711
vt 0.056329 0.990298
vt 0.176983 0.990316
vt 0.056345 0.884533
vt 0.708993 0.848777
vt 0.453735 0.848778
vt 0.176999 0.884551
vt 0.915601 0.727711
vt 0.768482 0.727711
vt 0.194964 0.972341
vt 0.194975 0.902532
vt 0.914335 0.848778
vt 0.767211 0.848778
vt 0.038364 0.902508
vt 0.038353 0.972317
vt 0.043617 0.985031
vt 0.421244 0.727711
vt 0.189697 0.985053
vt 0.739300 0.727711
vt 0.738029 0.848777
vt 0.302031 0.010882
vt 0.419975 0.848778
vt 0.003907 0.010882
vt 0.333620 0.711562
vt 0.310015 0.687961
vt 0.685501 0.356924
vt 0.767211 0.884006
vt 0.767211 0.862673
vt 0.914335 0.862673
vt 0.914335 0.884006
vt 0.738029 0.884006
vt 0.738029 0.862673
vt 0.708993 0.884006
vt 0.708993 0.862673
vt 0.453735 0.862673
vt 0.453735 0.884006
vt 0.953668 0.762937
vt 0.953668 0.741606
vt 0.915601 0.762937
vt 0.915601 0.741606
vt 0.768482 0.762937
vt 0.768481 0.741606
vt 0.739300 0.741606
vt 0.739300 0.762937
vt 0.710265 0.741606
vt 0.710265 0.762937
vt 0.455009 0.762937
vt 0.455009 0.741606
vt 0.952396 0.862673
vt 0.952396 0.884006
vt 0.914335 0.897127
vt 0.767211 0.897127
vt 0.738029 0.897127
vt 0.708993 0.897127
vt 0.453735 0.897127
vt 0.419975 0.897127
vt 0.915601 0.776056
vt 0.768481 0.776056
vt 0.739300 0.776056
vt 0.710265 0.776056
vt 0.455009 0.776056
vt 0.421244 0.776056
vt 0.453735 0.905614
vt 0.431605 0.905614
vt 0.708993 0.905614
vt 0.738029 0.905614
vt 0.767211 0.905614
vt 0.914335 0.905614
vt 0.432870 0.784508
vt 0.455009 0.784508
vt 0.710265 0.784508
vt 0.739300 0.784508
vt 0.768481 0.784508
vt 0.915601 0.784508
vt 0.453735 0.929540
vt 0.431605 0.929540
vt 0.708993 0.929540
vt 0.738029 0.929540
vt 0.767211 0.929540
vt 0.914335 0.929540
vt 0.432870 0.808446
vt 0.455009 0.808446
vt 0.710265 0.808446
vt 0.739300 0.808446
vt 0.768481 0.808446
vt 0.915600 0.808446
vt 0.956951 0.673404
vt 0.978766 0.673404
vt 0.707377 0.673404
vt 0.685501 0.673404
vt 0.663583 0.673404
vt 0.520610 0.673404
vt 0.498675 0.673404
vt 0.476745 0.673404
vt 0.226369 0.673404
vt 0.204467 0.673404
vt 0.182616 0.673404
vt 0.040374 0.673404
vt 0.061954 0.687985
vt 0.045265 0.694900
vt 0.333634 0.852067
vt 0.498675 0.356924
vt 0.310033 0.875672
vt 0.061972 0.875696
vt 0.204467 0.356924
vt 0.038367 0.852096
vt 0.038353 0.711590
vt 0.498685 0.344254
vt 0.470872 0.344254
vt 0.526488 0.344254
vt 0.770161 0.344254
vt 0.797931 0.344254
vt 0.825627 0.344254
vt 0.965873 0.344254
vt 0.003907 0.344254
vt 0.031552 0.344254
vt 0.274311 0.344254
vt 0.302031 0.344254
vt 0.329816 0.344254
vt 0.965873 0.010882
vt 0.189711 0.889818
vt 0.031552 0.010882
vt 0.274311 0.010882
vt 0.043631 0.889797
vt 0.329816 0.010882
vt 0.797931 0.010882
vt 0.825627 0.010882
vt 0.770161 0.010882
vt 0.498685 0.010882
vt 0.526488 0.010882
vt 0.470872 0.010882
vt 0.993456 0.344254
vt 0.993456 0.010882
vt 0.431605 0.936212
vt 0.915601 0.815126
vt 0.768481 0.815126
vt 0.739300 0.815127
vt 0.710265 0.815127
vt 0.455009 0.815126
vt 0.432869 0.815126
vt 0.914335 0.936212
vt 0.767211 0.936212
vt 0.738029 0.936212
vt 0.708993 0.936212
vt 0.453734 0.936212
vt 0.936861 0.808446
vt 0.936861 0.815127
vt 0.936861 0.784508
vt 0.944279 0.776056
vt 0.419975 0.884006
vt 0.419975 0.862673
vt 0.953668 0.727711
vt 0.935605 0.929540
vt 0.935604 0.936212
vt 0.935604 0.905614
vt 0.943017 0.897127
vt 0.421244 0.741606
vt 0.421244 0.762937
vt 0.952397 0.848778
vt 0.978766 0.356924
vt 0.018596 0.356924
vt 0.040374 0.356924
vt 0.182616 0.356924
vt 0.045282 0.868785
vt 0.226369 0.356924
vt 0.476745 0.356924
vt 0.326722 0.868757
vt 0.520610 0.356924
vt 0.663583 0.356924
vt 0.326705 0.694873
vt 0.707377 0.356924
vt 0.956951 0.356924
vt 0.018596 0.673404
vn 0.040675 -0.031058 0.998690
vn -0.040675 -0.031058 0.998690
vn -0.038235 -0.030978 0.998788
vn 0.038235 -0.030978 0.998788
vn -0.038235 -0.030978 -0.998788
vn -0.040675 -0.031058 -0.998690
vn 0.040675 -0.031058 -0.998690
vn 0.038235 -0.030978 -0.998788
vn 0.996907 -0.045130 -0.064335
vn 0.996907 -0.045130 0.064335
vn 0.996999 -0.045106 0.062910
vn 0.996999 -0.045106 -0.062910
vn -0.996907 -0.045130 0.064335
vn -0.996907 -0.045130 -0.064335
vn -0.996999 -0.045106 -0.062910
vn -0.996999 -0.045106 0.062910
vn -0.704578 -0.047865 0.708011
vn -0.708049 -0.047914 0.704535
vn 0.704578 -0.047865 0.708011
vn 0.708049 -0.047914 0.704535
vn -0.708049 -0.047914 -0.704535
vn -0.704578 -0.047865 -0.708011
vn 0.708049 -0.047914 -0.704535
vn 0.704578 -0.047865 -0.708011
vn 0.000000 1.000000 0.000000
vn 0.000000 1.000000 0.000000
vn 0.000000 1.000000 0.000000
vn 0.000000 -1.000000 -0.000000
vn 0.000000 -1.000000 -0.000000
vn 0.000000 -1.000000 -0.000000
vn -0.996640 0.000000 -0.081903
vn -0.996640 0.000000 -0.081903
vn -0.996640 0.000000 0.081903
vn -0.996640 0.000000 0.081903
vn -0.707111 0.000000 -0.707103
vn -0.707111 0.000000 -0.707103
vn -0.051991 0.000000 -0.998648
vn -0.051991 0.000000 -0.998648
vn 0.051991 0.000000 -0.998648
vn 0.051991 0.000000 -0.998648
vn 0.707111 0.000000 -0.707103
vn 0.707111 0.000000 -0.707103
vn 0.996640 0.000000 -0.081903
vn 0.996640 0.000000 -0.081903
vn 0.996640 0.000000 0.081903
vn 0.996640 0.000000 0.081903
vn 0.707111 0.000000 0.707103
vn 0.707111 0.000000 0.707103
vn 0.051991 0.000000 0.998648
vn 0.051991 0.000000 0.998648
vn -0.051991 0.000000 0.998648
vn -0.051991 0.000000 0.998648
vn -0.707111 0.000000 0.707103
vn -0.707111 0.000000 0.707103
vn -0.414514 -0.909536 -0.030377
vn -0.414514 -0.909536 0.030377
vn -0.414563 -0.909535 0.029719
vn -0.414563 -0.909535 -0.029719
vn -0.414399 0.909589 0.030368
vn -0.414399 0.909589 -0.030368
vn -0.414448 0.909588 -0.029711
vn -0.414448 0.909588 0.029711
vn -0.291077 0.911345 -0.291075
vn -0.291076 0.911345 -0.291076
vn -0.291158 -0.911293 -0.291156
vn -0.291157 -0.911293 -0.291157
vn -0.019056 0.909535 -0.415190
vn -0.018610 0.909530 -0.415221
vn -0.019062 -0.909482 -0.415306
vn -0.018616 -0.909477 -0.415338
vn 0.019061 -0.909482 -0.415307
vn 0.018615 -0.909477 -0.415338
vn 0.019056 0.909535 -0.415190
vn 0.018610 0.909530 -0.415221
vn 0.291077 0.911345 -0.291075
vn 0.291076 0.911345 -0.291076
vn 0.291157 -0.911293 -0.291157
vn 0.291157 -0.911293 -0.291157
vn 0.414399 0.909589 -0.030368
vn 0.414448 0.909588 -0.029711
vn 0.414514 -0.909536 -0.030377
vn 0.414563 -0.909535 -0.029719
vn 0.414514 -0.909536 0.030377
vn 0.414563 -0.909535 0.029719
vn 0.414399 0.909589 0.030368
vn 0.414448 0.909588 0.029711
vn 0.291158 -0.911293 0.291156
vn 0.291157 -0.911293 0.291157
vn 0.291077 0.911345 0.291075
vn 0.291076 0.911345 0.291076
vn 0.019062 -0.909482 0.415306
vn 0.018616 -0.909477 0.415338
vn 0.019056 0.909535 0.415190
vn 0.018610 0.909530 0.415221
vn -0.019061 -0.909482 0.415307
vn -0.018615 -0.909477 0.415338
vn -0.019056 0.909535 0.415190
vn -0.018610 0.909530 0.415221
vn -0.291157 -0.911293 0.291157
vn -0.291157 -0.911293 0.291157
vn -0.291077 0.911345 0.291075
vn -0.291076 0.911345 0.291076
vn -0.197275 0.960294 0.197274
vn -0.010916 0.954508 0.297986
vn -0.010915 0.954508 0.297986
vn -0.197275 0.960294 0.197274
vn 0.010916 0.954508 0.297986
vn 0.010915 0.954508 0.297986
vn 0.197275 0.960294 0.197276
vn 0.197275 0.960294 0.197276
vn 0.296725 0.954799 0.017719
vn 0.296725 0.954799 0.017719
vn 0.296725 0.954799 -0.017720
vn 0.296725 0.954799 -0.017719
vn 0.197275 0.960294 -0.197274
vn 0.197275 0.960294 -0.197274
vn 0.010916 0.954508 -0.297986
vn 0.010915 0.954508 -0.297986
vn -0.010916 0.954508 -0.297986
vn -0.010915 0.954508 -0.297986
vn -0.197275 0.960294 -0.197276
vn -0.197275 0.960294 -0.197276
vn -0.296725 0.954799 -0.017719
vn -0.296725 0.954799 -0.017719
vn -0.296725 0.954799 0.017720
vn -0.296725 0.954799 0.017719
vn -0.707107 0.000000 0.707107
vn -0.033679 0.000000 0.999433
vn -0.033734 -0.094120 0.994989
vn -0.702996 -0.107668 0.702996
vn 0.033679 0.000000 0.999433
vn 0.033734 -0.094120 0.994989
vn 0.707107 0.000000 0.707107
vn 0.702996 -0.107668 0.702996
vn 0.998467 0.000000 0.055345
vn 0.993967 -0.094663 0.055398
vn 0.998467 0.000000 -0.055345
vn 0.993967 -0.094663 -0.055398
vn 0.707107 0.000000 -0.707107
vn 0.702996 -0.107668 -0.702996
vn 0.033679 0.000000 -0.999433
vn 0.033734 -0.094120 -0.994989
vn -0.033679 0.000000 -0.999433
vn -0.033734 -0.094120 -0.994989
vn -0.707107 0.000000 -0.707107
vn -0.702996 -0.107668 -0.702996
vn -0.998467 0.000000 -0.055345
vn -0.993967 -0.094663 -0.055398
vn -0.998467 0.000000 0.055345
vn -0.993967 -0.094663 0.055398
vn -0.031030 0.031132 0.999034
vn -0.706726 0.032958 0.706720
vn 0.031030 0.031132 0.999034
vn 0.706726 0.032958 0.706720
vn 0.998192 0.031129 0.051417
vn 0.998192 0.031129 -0.051417
vn 0.706726 0.032958 -0.706720
vn 0.031030 0.031132 -0.999034
vn -0.031030 0.031132 -0.999034
vn -0.706726 0.032958 -0.706720
vn -0.998192 0.031129 -0.051417
vn -0.998192 0.031129 0.051417
vn -0.030955 0.039953 0.998722
vn -0.706456 0.042994 0.706450
vn 0.030955 0.039953 0.998722
vn 0.706456 0.042994 0.706450
vn 0.997879 0.040080 0.051302
vn 0.997879 0.040080 -0.051302
vn 0.706456 0.042994 -0.706450
vn 0.030955 0.039953 -0.998722
vn -0.030955 0.039953 -0.998722
vn -0.706456 0.042994 -0.706450
vn -0.997879 0.040080 -0.051302
vn -0.997879 0.040080 0.051302
vn 0.000000 -1.000000 0.000000
vn 0.000000 -1.000000 0.000000
vn 0.000000 -1.000000 0.000000
vn 0.000000 -1.000000 0.000000
vn 0.000000 -1.000000 0.000000
vn 0.000000 -1.000000 0.000000
vn 0.000000 -1.000000 -0.000000
vn 0.000000 -1.000000 -0.000000
vn 0.000000 -1.000000 -0.000000
vn 0.000000 1.000000 0.000000
vn 0.000000 1.000000 0.000000
vn 0.000000 1.000000 -0.000000
vn 0.000000 1.000000 -0.000000
vn 0.000000 1.000000 -0.000000
vn 0.000000 1.000000 -0.000000
vn 0.000000 1.000000 -0.000000
vn 0.000000 1.000000 0.000000
vn 0.000000 1.000000 -0.000000
s 1
g bin godot_exports
f 34/112/1 35/111/2 2/131/3 9/129/4
f 18/124/5 28/118/6 29/117/7 23/123/8
f 31/115/9 32/114/10 7/128/11 22/121/12
f 25/110/13 26/120/14 16/126/15 1/132/16
f 1/132/16 3/130/17 36/109/18 25/110/13
f 3/130/17 2/131/3 35/111/2 36/109/18
f 9/129/4 8/127/19 33/113/20 34/112/1
f 8/127/19 7/128/11 32/114/10 33/113/20
f 26/120/14 27/119/21 17/22/22 16/126/15
f 27/119/21 28/118/6 18/124/5 17/22/22
f 29/117/7 30/116/23 24/24/24 23/123/8
f 30/133/23 31/115/9 22/121/12 24/134/24
s 5
f 101/25/25 99/26/26 100/171/27
s 6
f 1/16/28 2/3/29 3/17/30
s 7
f 37/28/31 38/29/32 39/30/33 40/31/34
f 37/28/31 41/32/35 42/33/36 38/29/32
f 41/32/35 43/34/37 44/35/38 42/33/36
f 45/36/39 44/35/38 43/34/37 46/37/40
f 46/37/40 47/151/41 48/152/42 45/36/39
f 47/38/41 49/40/43 50/41/44 48/39/42
f 51/42/45 52/43/46 50/41/44 49/40/43
f 53/44/47 52/43/46 51/42/45 54/45/48
f 55/46/49 53/44/47 54/45/48 56/47/50
f 57/48/51 58/49/52 55/46/49 56/47/50
f 59/158/53 58/49/52 57/48/51 60/159/54
f 39/30/33 59/50/53 60/51/54 40/31/34
s 8
f 26/14/55 25/13/56 39/30/57 38/29/58
s 9
f 4/52/59 14/53/60 37/28/61 40/31/62
f 14/53/60 13/54/63 41/32/64 37/28/61
s 8
f 27/21/65 26/14/55 38/29/58 42/33/66
s 9
f 13/54/63 15/55/67 43/34/68 41/32/64
s 8
f 28/6/69 27/21/65 42/33/66 44/35/70
f 29/7/71 28/6/69 44/35/70 45/36/72
s 9
f 15/55/67 20/56/73 46/37/74 43/34/68
f 20/56/73 19/57/75 47/151/76 46/37/74
s 8
f 30/23/77 29/7/71 45/36/72 48/152/78
s 9
f 19/150/75 21/58/79 49/40/80 47/38/76
s 8
f 31/9/81 30/153/77 48/39/78 50/41/82
f 32/10/83 31/9/81 50/41/82 52/43/84
s 9
f 21/58/79 10/59/85 51/42/86 49/40/80
s 8
f 33/20/87 32/10/83 52/43/84 53/44/88
s 9
f 10/59/85 12/60/89 54/45/90 51/42/86
s 8
f 34/1/91 33/20/87 53/44/88 55/46/92
s 9
f 12/60/89 11/61/93 56/47/94 54/45/90
s 8
f 35/2/95 34/1/91 55/46/92 58/49/96
s 9
f 11/61/93 6/62/97 57/48/98 56/47/94
s 8
f 36/18/99 35/2/95 58/49/96 59/158/100
s 9
f 6/62/97 5/63/101 60/159/102 57/48/98
s 8
f 25/13/56 36/160/99 59/50/100 39/30/57
s 9
f 5/157/101 4/52/59 40/31/62 60/51/102
s 10
f 19/57/103 20/56/104 61/64/105 62/65/106
f 20/56/104 15/55/107 63/66/108 61/64/105
f 15/55/107 13/54/109 64/67/110 63/66/108
f 13/54/109 14/53/111 65/68/112 64/67/110
f 14/53/111 4/52/113 66/69/114 65/68/112
f 4/52/113 5/157/115 67/156/116 66/69/114
f 5/63/115 6/62/117 68/71/118 67/70/116
f 6/62/117 11/61/119 69/72/120 68/71/118
f 11/61/119 12/60/121 70/73/122 69/72/120
f 12/60/121 10/59/123 71/74/124 70/73/122
f 10/59/123 21/58/125 72/75/126 71/74/124
f 21/58/125 19/150/103 62/149/106 72/75/126
s 11
f 62/65/127 61/64/128 73/76/129 74/77/130
f 61/64/128 63/66/131 75/78/132 73/76/129
f 63/66/131 64/67/133 76/79/134 75/78/132
f 64/67/133 65/68/135 77/80/136 76/79/134
f 65/68/135 66/69/137 78/81/138 77/80/136
f 66/69/137 67/156/139 79/154/140 78/81/138
f 67/70/139 68/71/141 80/83/142 79/82/140
f 68/71/141 69/72/143 81/84/144 80/83/142
f 69/72/143 70/73/145 82/85/146 81/84/144
f 70/73/145 71/74/147 83/86/148 82/85/146
f 71/74/147 72/75/149 84/87/150 83/86/148
f 72/75/149 62/149/127 74/147/130 84/87/150
f 74/77/130 73/76/129 85/146/151 86/135/152
f 73/76/129 75/78/132 87/145/153 85/146/151
f 75/78/132 76/79/134 88/144/154 87/145/153
f 76/79/134 77/80/136 89/143/155 88/144/154
f 77/80/136 78/81/138 90/142/156 89/143/155
f 78/81/138 79/154/140 91/155/157 90/142/156
f 79/82/140 80/83/142 92/140/158 91/141/157
f 80/83/142 81/84/144 93/139/159 92/140/158
f 81/84/144 82/85/146 94/138/160 93/139/159
f 82/85/146 83/86/148 95/137/161 94/138/160
f 83/86/148 84/87/150 96/136/162 95/137/161
f 84/87/150 74/147/130 86/148/152 96/136/162
f 86/89/152 85/88/151 97/173/163 98/161/164
f 85/88/151 87/90/153 99/172/165 97/173/163
f 87/90/153 88/91/154 100/27/166 99/172/165
f 88/91/154 89/92/155 101/170/167 100/27/166
f 89/92/155 90/93/156 102/169/168 101/170/167
f 90/93/156 91/94/157 103/103/169 102/169/168
f 91/94/157 92/95/158 104/167/170 103/103/169
f 92/95/158 93/96/159 105/166/171 104/167/170
f 93/96/159 94/97/160 106/106/172 105/166/171
f 94/97/160 95/98/161 107/164/173 106/106/172
f 95/98/161 96/99/162 108/163/174 107/164/173
f 96/99/162 86/174/152 98/162/164 108/163/174
s 6
f 22/12/175 23/8/176 24/122/177
f 18/5/178 16/15/179 17/125/180
f 18/5/178 2/3/29 1/16/28 16/15/179
f 23/8/176 9/4/181 2/3/29 18/5/178
f 9/4/181 7/11/182 8/19/183
f 22/12/175 7/11/182 9/4/181 23/8/176
s 5
f 108/108/184 97/100/185 105/105/186 107/107/187
f 104/104/188 102/102/189 103/168/190
f 104/104/188 99/26/26 101/25/25 102/102/189
f 98/101/191 97/100/185 108/108/184
f 105/105/186 97/100/185 99/26/26 104/104/188
f 107/107/187 105/105/186 106/165/192
