# This file uses centimeters as units for non-parametric coordinates.

g default
v -0.222418 0.017910 -0.045919
v -0.221498 -0.010068 -0.045919
v 0.221498 -0.010068 -0.045919
v 0.222418 0.017910 -0.045919
v -0.221498 -0.010068 0.066006
v -0.207071 -0.010068 0.079347
v -0.222418 0.010068 0.066006
v -0.207931 0.006546 0.080494
v 0.221498 -0.010068 0.066006
v 0.207071 -0.010068 0.079347
v 0.222418 0.010068 0.066006
v 0.207931 0.006546 0.080494
v -0.222418 0.017910 -0.066006
v -0.207931 0.017910 -0.080494
v -0.221498 -0.010068 -0.066006
v -0.207071 -0.010068 -0.079347
v 0.222418 0.017910 -0.066006
v 0.207931 0.017910 -0.080494
v 0.221498 -0.010068 -0.066006
v 0.207071 -0.010068 -0.079347
vt 0.402175 0.045838
vt 0.403279 0.024397
vt 0.937185 0.024326
vt 0.938303 0.045766
vt 0.346476 0.259198
vt 0.402675 0.253819
vt 0.957857 0.261646
vt 0.936609 0.290067
vt 0.348395 0.207671
vt 0.342714 0.582615
vt 0.273474 0.582624
vt 0.273440 0.308574
vt 0.956991 0.064959
vt 0.956179 0.209535
vt 0.384246 0.209315
vt 0.383498 0.065035
vt 0.384046 0.235160
vt 0.355107 0.308564
vt 0.355141 0.582614
vt 0.956370 0.235372
vt 0.363393 0.573687
vt 0.992564 0.234064
vt 0.992043 0.207920
vt 0.363361 0.317488
vt 0.347802 0.233881
vt 0.342680 0.308566
vt 0.962438 0.022790
vt 0.265221 0.573700
vt 0.265189 0.317500
vt 0.357554 0.063581
vt 0.937727 0.254016
vt 0.993911 0.259383
vt 0.403763 0.289869
vt 0.382549 0.261438
vt 0.964912 0.048624
vt 0.982940 0.063548
vt 0.378027 0.022874
vt 0.375566 0.048708
vn 0.000000 -0.068883 0.997625
vn 0.000000 -0.068883 0.997625
vn 0.000000 -0.068883 0.997625
vn 0.000000 -0.068883 0.997625
vn 0.000000 -0.040967 -0.999160
vn 0.000000 -0.040967 -0.999161
vn 0.000000 -0.040967 -0.999161
vn 0.000000 -0.040967 -0.999160
vn 0.000000 -1.000000 0.000000
vn 0.000000 -1.000000 0.000000
vn 0.000000 -1.000000 0.000000
vn 0.000000 -1.000000 0.000000
vn 0.999269 -0.038211 -0.001339
vn 0.999269 -0.038211 -0.001339
vn 0.999304 -0.037288 -0.001108
vn 0.999305 -0.037253 -0.001099
vn -0.999305 -0.037253 -0.001099
vn -0.999304 -0.037288 -0.001108
vn -0.999269 -0.038211 -0.001339
vn -0.999269 -0.038211 -0.001339
vn -0.999460 -0.032863 0.000000
vn -0.999460 -0.032863 0.000000
vn 0.999460 -0.032863 0.000000
vn 0.999460 -0.032863 0.000000
vn 0.000000 1.000000 -0.000000
vn 0.000000 1.000000 -0.000000
vn 0.000000 1.000000 -0.000000
vn 0.000000 1.000000 -0.000000
vn 0.000000 0.996781 0.080178
vn 0.000000 0.971699 0.236225
vn 0.000000 0.971699 0.236225
vn 0.000000 0.996781 0.080178
vn 0.000000 -1.000000 0.000000
vn 0.000000 -1.000000 0.000000
vn 0.000000 -1.000000 0.000000
vn 0.000000 -1.000000 0.000000
vn -0.695877 -0.056053 0.715970
vn -0.695877 -0.056053 0.715970
vn -0.695877 -0.056053 0.715970
vn -0.695877 -0.056053 0.715970
vn 0.695877 -0.056053 0.715970
vn 0.695877 -0.056053 0.715970
vn 0.695877 -0.056053 0.715970
vn 0.695877 -0.056053 0.715970
vn -0.692962 -0.036804 -0.720034
vn -0.692962 -0.036804 -0.720034
vn -0.692962 -0.036804 -0.720034
vn -0.692962 -0.036804 -0.720034
vn 0.692962 -0.036804 -0.720034
vn 0.692962 -0.036804 -0.720034
vn 0.692962 -0.036804 -0.720034
vn 0.692962 -0.036804 -0.720034
vn 0.000000 -1.000000 0.000000
vn 0.000000 -1.000000 0.000000
vn 0.000000 0.998240 0.059300
vn 0.000000 0.998240 0.059300
s off
g compaq_keyboard compaq_godot_export
f 8/1/1 6/2/2 10/3/3 12/4/4
f 16/33/5 14/6/6 18/31/7 20/8/8
s 1
f 2/26/9 3/10/10 9/11/11 5/12/12
s 2
f 11/13/13 9/36/14 3/23/15 4/14/16
s 3
f 1/15/17 2/9/18 5/30/19 7/16/20
f 13/17/21 15/25/22 2/9/18 1/15/17
s 2
f 4/14/16 3/23/15 19/22/23 17/20/24
s 4
f 13/17/25 17/20/26 18/31/27 14/6/28
f 7/16/29 8/1/30 12/4/31 11/13/32
s 1
f 15/18/33 16/24/34 20/21/35 19/19/36
s off
f 5/37/37 6/2/38 8/1/39 7/38/40
f 10/3/41 9/27/42 11/35/43 12/4/44
f 13/17/45 14/34/46 16/5/47 15/25/48
f 18/7/49 17/20/50 19/22/51 20/32/52
s 1
f 15/18/33 19/19/36 3/10/10 2/26/9
f 5/12/12 9/11/11 10/28/53 6/29/54
s 4
f 7/16/29 11/13/32 4/14/55 1/15/56
f 1/15/56 4/14/55 17/20/26 13/17/25
